<?xml version="1.0" encoding="UTF-8"?>
<svg version="1.1" xmlns="http://www.w3.org/2000/svg" width="48" height="48">
<path d="M0 0 C0.78117187 -0.01160156 1.56234375 -0.02320312 2.3671875 -0.03515625 C7.32472486 -0.01011818 10.65708821 0.74419767 15 3.375 C15 4.035 15 4.695 15 5.375 C16.11375 5.6225 16.11375 5.6225 17.25 5.875 C21.26578222 8.06542666 22.48385611 11.14703213 24 15.375 C24.50245371 18.44310382 24.51859107 21.39761273 24.4375 24.5 C24.44458984 25.27214844 24.45167969 26.04429688 24.45898438 26.83984375 C24.40464106 31.74746338 23.58937569 35.07540005 21 39.375 C20.34 39.375 19.68 39.375 19 39.375 C18.34 40.695 17.68 42.015 17 43.375 C16.34 43.375 15.68 43.375 15 43.375 C15 44.035 15 44.695 15 45.375 C9.8508642 48.49418803 5.8362095 48.83667638 0 48.75 C-1.17175781 48.76740234 -1.17175781 48.76740234 -2.3671875 48.78515625 C-7.32472486 48.76011818 -10.65708821 48.00580233 -15 45.375 C-15 44.715 -15 44.055 -15 43.375 C-16.32 42.715 -17.64 42.055 -19 41.375 C-19 40.715 -19 40.055 -19 39.375 C-19.66 39.375 -20.32 39.375 -21 39.375 C-24.11918803 34.2258642 -24.46167638 30.2112095 -24.375 24.375 C-24.38660156 23.59382813 -24.39820312 22.81265625 -24.41015625 22.0078125 C-24.38511818 17.05027514 -23.63080233 13.71791179 -21 9.375 C-20.34 9.375 -19.68 9.375 -19 9.375 C-18.34 8.055 -17.68 6.735 -17 5.375 C-16.34 5.375 -15.68 5.375 -15 5.375 C-15 4.715 -15 4.055 -15 3.375 C-9.8508642 0.25581197 -5.8362095 -0.08667638 0 0 Z " fill="#F6F600" transform="translate(24,-0.375)"/>
<path d="M0 0 C3.86599398 5.04260084 4.21013414 8.45119374 4.25 14.75 C4.270625 15.54921875 4.29125 16.3484375 4.3125 17.171875 C4.34575714 22.22696001 3.71359121 25.57256171 1 30 C0.34 30 -0.32 30 -1 30 C-1.66 31.32 -2.32 32.64 -3 34 C-3.66 34 -4.32 34 -5 34 C-5 34.66 -5 35.32 -5 36 C-10.1491358 39.11918803 -14.1637905 39.46167638 -20 39.375 C-21.17175781 39.39240234 -21.17175781 39.39240234 -22.3671875 39.41015625 C-27.32472486 39.38511818 -30.65708821 38.63080233 -35 36 C-35 35.34 -35 34.68 -35 34 C-36.32 33.34 -37.64 32.68 -39 32 C-39 31.34 -39 30.68 -39 30 C-37.7625 30.5259375 -37.7625 30.5259375 -36.5 31.0625 C-32.01211463 32.26461215 -29.53858374 32.02484149 -25 31 C-21.36748599 28.70578063 -20.67319017 26.27156814 -19.75 22.25 C-19.5025 20.8475 -19.255 19.445 -19 18 C-15.7 17.67 -12.4 17.34 -9 17 C-9 16.01 -9 15.02 -9 14 C-11.97 13.67 -14.94 13.34 -18 13 C-17.67 9.37 -17.34 5.74 -17 2 C-15.41058594 2.03480469 -15.41058594 2.03480469 -13.7890625 2.0703125 C-12.4010487 2.08906944 -11.0130273 2.10726972 -9.625 2.125 C-8.92632812 2.14175781 -8.22765625 2.15851562 -7.5078125 2.17578125 C-5.67102514 2.19344267 -3.83398037 2.10303261 -2 2 C-1.34 1.34 -0.68 0.68 0 0 Z " fill="#FAFA00" transform="translate(44,9)"/>
<path d="M0 0 C-0.33 1.32 -0.66 2.64 -1 4 C-4.79267192 4.9360342 -7.93674565 4.98276252 -11.8125 4.5625 C-12.78832031 4.46066406 -13.76414062 4.35882812 -14.76953125 4.25390625 C-15.50558594 4.17011719 -16.24164062 4.08632812 -17 4 C-16.979375 5.0725 -16.95875 6.145 -16.9375 7.25 C-17 11 -17 11 -18 15 C-15.03 15 -12.06 15 -9 15 C-8.67 16.32 -8.34 17.64 -8 19 C-9 20 -9 20 -11.28515625 20.09765625 C-12.65994141 20.08025391 -12.65994141 20.08025391 -14.0625 20.0625 C-14.98160156 20.05347656 -15.90070312 20.04445313 -16.84765625 20.03515625 C-17.55792969 20.02355469 -18.26820312 20.01195313 -19 20 C-19.02126953 20.88751953 -19.02126953 20.88751953 -19.04296875 21.79296875 C-19.29683048 25.99884016 -19.63061777 28.46271676 -22.0625 32 C-26.02870053 34.70039185 -28.19159866 35 -33 35 C-35.9375 33.875 -35.9375 33.875 -38 32 C-38.8125 29.3125 -38.8125 29.3125 -39 27 C-35.125 27.875 -35.125 27.875 -34 29 C-31.04182893 29.25005386 -31.04182893 29.25005386 -28 29 C-25.4345406 26.4345406 -25.45953913 24.52313332 -25 21 C-25.99 20.67 -26.98 20.34 -28 20 C-28 18.68 -28 17.36 -28 16 C-26.68 16 -25.36 16 -24 16 C-23.67 12.37 -23.34 8.74 -23 5 C-25.31 5.66 -27.62 6.32 -30 7 C-30 9.31 -30 11.62 -30 14 C-34.875 13.125 -34.875 13.125 -36 12 C-35.83857919 7.72234855 -35.68438372 5.66683542 -32.5625 2.625 C-27.10339504 -0.83687144 -21.92316337 -0.38510809 -15.5625 -0.625 C-14.40427734 -0.6765625 -13.24605469 -0.728125 -12.05273438 -0.78125 C-10.38887695 -0.84699219 -10.38887695 -0.84699219 -8.69140625 -0.9140625 C-7.67248291 -0.9548291 -6.65355957 -0.9955957 -5.60375977 -1.03759766 C-3 -1 -3 -1 0 0 Z " fill="#101000" transform="translate(44,7)"/>
</svg>
